RBDS027runT45_grf
version=1
nRows=15
nColumns=19
inDegrees=no
endheader
time	ground_force_r_vx	ground_force_r_vy	ground_force_r_vz	ground_force_r_px	ground_force_r_py	ground_force_r_pz	ground_force_r_mx	ground_force_r_my	ground_force_r_mz	ground_force_l_vx	ground_force_l_vy	ground_force_l_vz	ground_force_l_px	ground_force_l_py	ground_force_l_pz	ground_force_l_mx	ground_force_l_my	ground_force_l_mz
     14.99900000	      0.00000000	      0.00000000	      0.00000000	      0.00000000	      0.00000000	      0.00000000	      0.00000000	      0.00000000	      0.00000000	    216.55735089	   1320.61513783	     -2.33318552	      1.91869717	      0.00000000	      0.94823491	      0.00000000	     14.91864968	     -0.00000000
     15.00000000	      0.00000000	      0.00000000	      0.00000000	      0.00000000	      0.00000000	      0.00000000	      0.00000000	      0.00000000	      0.00000000	    220.89328810	   1302.11324268	     -4.30351226	      1.91440569	      0.00000000	      0.94835159	      0.00000000	     14.76204475	     -0.00000000
     15.00100000	      0.00000000	      0.00000000	      0.00000000	      0.00000000	      0.00000000	      0.00000000	      0.00000000	      0.00000000	      0.00000000	    224.47413456	   1282.43761444	     -6.14865074	      1.91016801	      0.00000000	      0.94846117	      0.00000000	     14.59114419	     -0.00000000
     15.00200000	      0.00000000	      0.00000000	      0.00000000	      0.00000000	      0.00000000	      0.00000000	      0.00000000	      0.00000000	      0.00000000	    228.05498102	   1262.76198620	     -7.99378922	      1.90593032	      0.00000000	      0.94857076	      0.00000000	     14.42024364	     -0.00000000
     15.00300000	      0.00000000	      0.00000000	      0.00000000	      0.00000000	      0.00000000	      0.00000000	      0.00000000	      0.00000000	      0.00000000	    231.63582747	   1243.08635796	     -9.83892770	      1.90169264	      0.00000000	      0.94868034	      0.00000000	     14.24934309	     -0.00000000
     15.00400000	      0.00000000	      0.00000000	      0.00000000	      0.00000000	      0.00000000	      0.00000000	      0.00000000	      0.00000000	      0.00000000	    234.68262901	   1222.71677512	    -11.57387270	      1.89750860	      0.00000000	      0.94878258	      0.00000000	     14.07033408	     -0.00000000
     15.00500000	      0.00000000	      0.00000000	      0.00000000	      0.00000000	      0.00000000	      0.00000000	      0.00000000	      0.00000000	      0.00000000	    237.46240808	   1202.00021498	    -13.25372096	      1.89335140	      0.00000000	      0.94888115	      0.00000000	     13.88727084	     -0.00000000
     15.00600000	      0.00000000	      0.00000000	      0.00000000	      0.00000000	      0.00000000	      0.00000000	      0.00000000	      0.00000000	      0.00000000	    240.24218715	   1181.28365483	    -14.93356921	      1.88919419	      0.00000000	      0.94897972	      0.00000000	     13.70420761	     -0.00000000
     15.00700000	      0.00000000	      0.00000000	      0.00000000	      0.00000000	      0.00000000	      0.00000000	      0.00000000	      0.00000000	      0.00000000	    242.74388729	   1160.27258718	    -16.54694113	      1.88507318	      0.00000000	      0.94907352	      0.00000000	     13.51769478	     -0.00000000
     15.00800000	      0.00000000	      0.00000000	      0.00000000	      0.00000000	      0.00000000	      0.00000000	      0.00000000	      0.00000000	      0.00000000	    244.68942954	   1138.67250451	    -18.02736034	      1.88102457	      0.00000000	      0.94915779	      0.00000000	     13.32428277	     -0.00000000
     15.00900000	      0.00000000	      0.00000000	      0.00000000	      0.00000000	      0.00000000	      0.00000000	      0.00000000	      0.00000000	      0.00000000	    246.63497180	   1117.07242185	    -19.50777956	      1.87697596	      0.00000000	      0.94924205	      0.00000000	     13.13087076	     -0.00000000
     15.01000000	      0.00000000	      0.00000000	      0.00000000	      0.00000000	      0.00000000	      0.00000000	      0.00000000	      0.00000000	      0.00000000	    248.58051406	   1095.47233918	    -20.98819878	      1.87292735	      0.00000000	      0.94932631	      0.00000000	     12.93745875	     -0.00000000
     15.01100000	      0.00000000	      0.00000000	      0.00000000	      0.00000000	      0.00000000	      0.00000000	      0.00000000	      0.00000000	      0.00000000	    249.67290380	   1073.16751558	    -22.24181917	      1.86901622	      0.00000000	      0.94939368	      0.00000000	     12.73521149	     -0.00000000
     15.01200000	      0.00000000	      0.00000000	      0.00000000	      0.00000000	      0.00000000	      0.00000000	      0.00000000	      0.00000000	      0.00000000	    250.76529355	   1050.86269198	    -23.49543957	      1.86510510	      0.00000000	      0.94946106	      0.00000000	     12.53296422	     -0.00000000
     15.01300000	      0.00000000	      0.00000000	      0.00000000	      0.00000000	      0.00000000	      0.00000000	      0.00000000	      0.00000000	      0.00000000	    251.85768330	   1028.55786838	    -24.74905996	      1.86119397	      0.00000000	      0.94952843	      0.00000000	     12.33071696	     -0.00000000
